<svg xmlns="http://www.w3.org/2000/svg" width="152" height="152" viewBox="0 0 152 152">
  <rect width="152" height="152" rx="30" fill="#4f46e5"/>
  <g transform="translate(30, 30)">
    <svg width="92" height="92" viewBox="0 0 24 24" fill="none" stroke="white" stroke-width="1.5" stroke-linecap="round" stroke-linejoin="round">
      <path d="M20 13c0 5-3.5 7.5-7.66 8.95a1 1 0 0 1-.67-.01C7.5 20.5 4 18 4 13V6a1 1 0 0 1 1-1c2 0 4.5-1.2 6.24-2.72a1.17 1.17 0 0 1 1.52 0C14.51 3.81 17 5 19 5a1 1 0 0 1 1 1z"/>
      <path d="M12 8v4"/>
      <path d="M10 12h4"/>
    </svg>
  </g>
</svg>